PathFileType	4	(X/Y/Z)	/Users/itak/Documents/Research/Walk-IL/dataset/trc/00475_00167.trc
DataRate	CameraRate	NumFrames	NumMarkers	Units	OrigDataRate	OrigDataStartFrame	OrigNumFrames
100.000000	100.000000	4	53	mm	100.000000	0	543
Frame#	Time	RPSI			LPSI			L3			STRN			T10			C7			CLAV			RBAK			LBAK			LSHO			LUPA			LAEL			LAOL			LWPS			LFRA			LIFD			LHPS			LHTS			RSHO			RUPA			RAEL			RAOL			RWTS			RWPS			RFRA			RIFD			RHTS			RHPS			RBHD			LFHD			RFHD			LBHD			LHIP			RHIP			RASI			LASI			LKNE			LTHI			LANK			LTIP			LTOE			LMT1			LMT5			LHEE			RKNE			RTHI			RANK			RTIP			RTOE			RMT1			RMT5			RHEE			LWTS			
		X1	Y1	Z1	X2	Y2	Z2	X3	Y3	Z3	X4	Y4	Z4	X5	Y5	Z5	X6	Y6	Z6	X7	Y7	Z7	X8	Y8	Z8	X9	Y9	Z9	X10	Y10	Z10	X11	Y11	Z11	X12	Y12	Z12	X13	Y13	Z13	X14	Y14	Z14	X15	Y15	Z15	X16	Y16	Z16	X17	Y17	Z17	X18	Y18	Z18	X19	Y19	Z19	X20	Y20	Z20	X21	Y21	Z21	X22	Y22	Z22	X23	Y23	Z23	X24	Y24	Z24	X25	Y25	Z25	X26	Y26	Z26	X27	Y27	Z27	X28	Y28	Z28	X29	Y29	Z29	X30	Y30	Z30	X31	Y31	Z31	X32	Y32	Z32	X33	Y33	Z33	X34	Y34	Z34	X35	Y35	Z35	X36	Y36	Z36	X37	Y37	Z37	X38	Y38	Z38	X39	Y39	Z39	X40	Y40	Z40	X41	Y41	Z41	X42	Y42	Z42	X43	Y43	Z43	X44	Y44	Z44	X45	Y45	Z45	X46	Y46	Z46	X47	Y47	Z47	X48	Y48	Z48	X49	Y49	Z49	X50	Y50	Z50	X51	Y51	Z51	X52	Y52	Z52	X53	Y53	Z53	

1	0	-1320.15576171875	969.6364135742188	-148.5182495117188	-1288.494995117188	968.785888671875	-287.2428283691406	-1288.232788085938	1066.148681640625	-205.9145660400391	-1015.25341796875	1254.781982421875	-159.6012878417969	-1300.994140625	1189.776733398438	-216.9702606201172	-1231.022216796875	1455.151733398438	-195.9479370117188	-1047.429931640625	1368.972534179688	-169.4512634277344	-1312.27880859375	1337.946655273438	-111.8795776367188	-1240.40185546875	1408.471557617188	-301.725830078125	-1120.07666015625	1427.649169921875	-354.9948120117188	-1100.619506835938	1304.0810546875	-448.7806396484375	-1055.822509765625	1083.761840820312	-452.4780883789062	-1148.951293945312	1066.547729492188	-412.2902526855469	-991.5568237304688	877.7647094726562	-417.0943603515625	-1021.603088378906	1000.19580078125	-440.4271850585938	-930.8013305664062	751.6680908203125	-342.3728332519531	-970.3718872070312	805.6810913085938	-407.4960327148438	-934.5009765625	826.9052124023438	-348.3120727539062	-1195.809692382812	1427.402954101562	-24.48746109008789	-1223.51513671875	1367.876098632812	50.25538635253906	-1204.63330078125	1076.789794921875	105.5437240600586	-1254.864135742188	1057.964111328125	64.46330261230469	-1092.075805664062	881.7384643554688	55.1082649230957	-1156.809814453125	860.2408447265625	112.6860885620117	-1196.46875	1017.713012695312	112.2652740478516	-1052.5693359375	739.3883666992188	92.59002685546875	-1057.549560546875	796.3382568359375	76.9471435546875	-1125.800170898438	777.8728637695312	115.9623718261719	-1189.404052734375	1649.1689453125	-103.1857528686523	-1006.779907226562	1672.965698242188	-199.2955932617188	-1056.591186523438	1677.001831054688	-78.24551391601562	-1137.34716796875	1646.576293945312	-274.4905395507812	-1132.396362304688	866.46484375	-374.9272155761719	-1236.662841796875	862.6763305664062	10.13557624816895	-1118.017211914062	902.935302734375	-28.06872749328613	-1053.518676757812	901.8297729492188	-276.6956787109375	-1115.515747070312	448.9115295410156	-334.6872863769531	-1096.49609375	602.2234497070312	-354.0102844238281	-1201.17626953125	41.10317611694336	-344.7132873535156	-1124.140502929688	296.9748840332031	-347.8778686523438	-985.2139282226562	45.28679656982422	-234.4032897949219	-1065.5771484375	50.55967330932617	-219.2374725341797	-1047.059936523438	46.98887634277344	-330.8933410644531	-1255.923461914062	46.12710189819336	-289.6678161621094	-1193.722534179688	469.9440307617188	2.541002035140991	-1194.443969726562	730.8706665039062	35.86622619628906	-1271.085083007812	47.56160354614258	11.40978240966797	-1201.823120117188	328.7378540039062	16.20296287536621	-1053.688354492188	49.04899215698242	-15.7027530670166	-1113.318603515625	52.69746398925781	-58.67853927612305	-1140.74755859375	49.47172164916992	46.5919075012207	-1332.174560546875	39.74611663818359	-37.90589141845703	-968.1808471679688	906.12646484375	-352.6672058105469	
2	0.01	-1320.4296875	969.9327392578125	-149.9390411376953	-1288.1826171875	968.9136352539062	-288.5281372070312	-1288.061645507812	1066.273315429688	-207.1854705810547	-1014.893493652344	1254.621704101562	-160.3483123779297	-1300.716918945312	1189.968872070312	-218.2268524169922	-1230.423828125	1455.209594726562	-197.0925445556641	-1046.990844726562	1368.78662109375	-170.3798675537109	-1311.892456054688	1338.25244140625	-113.0187759399414	-1239.681884765625	1408.385131835938	-302.9131164550781	-1119.261596679688	1427.365600585938	-356.017578125	-1099.737915039062	1303.790649414062	-449.7356872558594	-1055.205810546875	1083.454956054688	-453.3697509765625	-1148.720581054688	1066.497802734375	-413.6592712402344	-991.4580078125	877.3283081054688	-417.940673828125	-1021.163513183594	999.7802124023438	-441.2594909667969	-931.3692626953125	751.0205078125	-342.9497375488281	-970.460205078125	805.131103515625	-408.2854919433594	-934.7161254882812	826.2803955078125	-348.8981018066406	-1195.2802734375	1427.547729492188	-25.57964134216309	-1223.0361328125	1367.989013671875	49.16768646240234	-1204.130859375	1076.548583984375	103.5387115478516	-1254.631958007812	1057.881591796875	62.82864379882812	-1091.401977539062	881.5974731445312	52.23357009887695	-1156.06494140625	859.8895263671875	109.7587432861328	-1195.951416015625	1017.455505371094	110.077995300293	-1052.44384765625	738.6707763671875	88.28840637207031	-1057.154663085938	795.8407592773438	73.28464508056641	-1125.379760742188	777.40869140625	112.3379898071289	-1188.388671875	1649.381958007812	-104.4984359741211	-1005.866516113281	1672.664672851562	-200.9154968261719	-1055.45361328125	1676.9326171875	-79.80966949462891	-1136.557739257812	1646.45458984375	-275.9179382324219	-1132.045043945312	866.5958862304688	-375.5939636230469	-1237.579711914062	862.8953857421875	8.827051162719727	-1118.975219726562	903.1663818359375	-28.40128707885742	-1053.298583984375	901.76025390625	-276.8674621582031	-1115.4892578125	448.8113708496094	-335.0205078125	-1096.188354492188	602.1957397460938	-354.30419921875	-1201.15869140625	41.07362747192383	-344.758056640625	-1124.007080078125	296.8907775878906	-348.1217956542969	-985.2479248046875	45.30123519897461	-234.4043731689453	-1065.6025390625	50.57096481323242	-219.2427062988281	-1047.048217773438	46.97124099731445	-330.9002990722656	-1255.950561523438	46.13561248779297	-289.7401428222656	-1192.720092773438	470.3945617675781	2.586080551147461	-1194.600830078125	731.2010498046875	34.61527633666992	-1270.964965820312	47.78445053100586	11.38345336914062	-1201.046508789062	328.8668518066406	16.32080268859863	-1053.62841796875	49.06046676635742	-15.48336029052734	-1113.189575195312	52.80878829956055	-58.50621032714844	-1140.719970703125	49.43562316894531	46.69344329833984	-1332.047607421875	40.08526611328125	-37.98093032836914	-968.2548217773438	905.6107788085938	-353.2986755371094	
3	0.02	-1320.71826171875	970.2947998046875	-151.6877899169922	-1287.777465820312	969.0731201171875	-290.1082763671875	-1287.855712890625	1066.423828125	-208.7281646728516	-1014.476013183594	1254.420654296875	-161.2245330810547	-1300.385986328125	1190.199951171875	-219.7536468505859	-1229.693115234375	1455.27880859375	-198.4941101074219	-1046.447021484375	1368.575561523438	-171.4899597167969	-1311.435668945312	1338.619750976562	-114.4240188598633	-1238.79443359375	1408.285522460938	-304.35888671875	-1118.255615234375	1427.017333984375	-357.2496032714844	-1098.6376953125	1303.42822265625	-450.8743591308594	-1054.42236328125	1083.074829101562	-454.4772033691406	-1148.365356445312	1066.406494140625	-415.3345947265625	-991.35302734375	876.7552490234375	-419.080322265625	-1020.618103027344	999.260498046875	-442.3299560546875	-932.1054077148438	750.1344604492188	-343.8594665527344	-970.59912109375	804.4180908203125	-409.3985900878906	-935.0280151367188	825.4298706054688	-349.7565612792969	-1194.669921875	1427.712036132812	-26.89527320861816	-1222.483276367188	1368.110595703125	47.85046768188477	-1203.5322265625	1076.223999023438	101.0850982666016	-1254.286987304688	1057.737426757812	60.70942306518555	-1090.559936523438	881.4544677734375	48.62265014648438	-1155.114990234375	859.4512329101562	106.1159591674805	-1195.304077148438	1017.109924316406	107.3697814941406	-1052.299072265625	737.7997436523438	82.83955383300781	-1056.659301757812	795.2324829101562	68.66538238525391	-1124.820434570312	776.8273315429688	107.7926788330078	-1187.060180664062	1649.68701171875	-106.0706100463867	-1004.702026367188	1672.223022460938	-202.9446563720703	-1053.969116210938	1676.81982421875	-81.7593994140625	-1135.573974609375	1646.308227539062	-277.6519470214844	-1131.58984375	866.7470092773438	-376.4100646972656	-1238.655151367188	863.1646118164062	7.221288681030273	-1120.077514648438	903.4718627929688	-28.81449699401855	-1053.052124023438	901.6826171875	-277.0860595703125	-1115.454467773438	448.6946411132812	-335.4434814453125	-1095.824829101562	602.172607421875	-354.6592102050781	-1201.134643554688	41.03206634521484	-344.8075866699219	-1123.85498046875	296.7933959960938	-348.4266357421875	-985.2860107421875	45.31740188598633	-234.4078063964844	-1065.628662109375	50.58711624145508	-219.2517700195312	-1047.030395507812	46.95107269287109	-330.9104614257812	-1255.979370117188	46.14573287963867	-289.8265075683594	-1191.580078125	470.9602355957031	2.61262583732605	-1194.935424804688	731.6456298828125	33.26068878173828	-1270.828735351562	48.0433235168457	11.3421106338501	-1200.178344726562	329.05078125	16.46106147766113	-1053.573486328125	49.11312103271484	-15.17182445526123	-1113.02587890625	52.94839096069336	-58.28403472900391	-1140.695678710938	49.38818740844727	46.82830810546875	-1331.895263671875	40.48786544799805	-38.08604049682617	-968.3623046875	904.8915405273438	-354.1845092773438	
4	0.03	-1320.977294921875	970.693115234375	-153.6654357910156	-1287.291748046875	969.256103515625	-291.897216796875	-1287.62548828125	1066.589233398438	-210.4521179199219	-1014.037170410156	1254.192993164062	-162.1658630371094	-1300.018798828125	1190.453002929688	-221.4644317626953	-1228.874145507812	1455.354370117188	-200.0748291015625	-1045.828857421875	1368.358154296875	-172.7086639404297	-1310.943115234375	1339.023315429688	-116.0242004394531	-1237.78662109375	1408.18017578125	-305.9800415039062	-1117.11279296875	1426.620971679688	-358.6133422851562	-1097.3671875	1303.012329101562	-452.1202697753906	-1053.497314453125	1082.640991210938	-455.7437438964844	-1147.867553710938	1066.266967773438	-417.2180786132812	-991.2598876953125	876.0587158203125	-420.5084838867188	-1019.990539550781	998.6600952148438	-443.605712890625	-932.9933471679688	749.0177612304688	-345.1578369140625	-970.8015747070312	803.562255859375	-410.8551330566406	-935.4432373046875	824.353759765625	-350.9186401367188	-1194.031616210938	1427.881591796875	-28.35540580749512	-1221.906127929688	1368.22509765625	46.38099670410156	-1202.874877929688	1075.822509765625	98.31608581542969	-1253.836547851562	1057.522216796875	58.19480133056641	-1089.594848632812	881.32861328125	44.42721176147461	-1153.98583984375	858.9525756835938	101.931884765625	-1194.556274414062	1016.683959960938	104.277946472168	-1052.1416015625	736.8289794921875	76.44404602050781	-1056.083251953125	794.548828125	63.2738151550293	-1124.1279296875	776.1640014648438	102.5410842895508	-1185.44873046875	1650.090576171875	-107.8000869750977	-1003.324279785156	1671.630737304688	-205.2938537597656	-1052.169067382812	1676.65380859375	-84.00389862060547	-1134.44921875	1646.141967773438	-279.5855712890625	-1131.030395507812	866.889892578125	-377.3346862792969	-1239.795288085938	863.4677734375	5.416012287139893	-1121.212646484375	903.845703125	-29.29827880859375	-1052.794189453125	901.6029052734375	-277.3539123535156	-1115.411254882812	448.5725708007812	-335.9374084472656	-1095.433471679688	602.159423828125	-355.0529479980469	-1201.10595703125	40.98110961914062	-344.8566284179688	-1123.702514648438	296.691650390625	-348.7751770019531	-985.3234252929688	45.33467483520508	-234.4160614013672	-1065.652099609375	50.60802841186523	-219.2654266357422	-1047.004760742188	46.92945098876953	-330.923828125	-1256.006591796875	46.15633773803711	-289.9196166992188	-1190.423217773438	471.6096496582031	2.607407569885254	-1195.412109375	732.1771240234375	31.85799598693848	-1270.692260742188	48.31323623657227	11.28468132019043	-1199.314086914062	329.2898864746094	16.60600662231445	-1053.53466796875	49.22571563720703	-14.76735210418701	-1112.836303710938	53.11037063598633	-58.02036285400391	-1140.681884765625	49.33090972900391	46.99240875244141	-1331.726806640625	40.91622543334961	-38.22990036010742	-968.50830078125	903.9681396484375	-355.3352661132812	
